# xmcd
#
# Track frame offsets: 
#        150
#        18665
#        36882
#        48773
#        62980
#        79545
#        99843
#        119702
#        134061
#
# Disc length: 2039 seconds
#
# Revision: 0
# Processed by: cddbd v1.5.2PL0 Copyright (c) Steve Scherf et al.
# Submitted via: ExactAudioCopyFreeDBPlugin 1.0
#
DISCID=7807f509
DTITLE=We Are Aust - We Are Aust
DYEAR=2017
DGENRE=No, thanks.
TTITLE0=Between The Sheets
TTITLE1=Ranger
TTITLE2=Wild River
TTITLE3=We Are Aust
TTITLE4=Jump
TTITLE5=Someday Soon
TTITLE6=Humans
TTITLE7=Giants
TTITLE8=Runner
EXTD=
EXTT0=
EXTT1=
EXTT2=
EXTT3=
EXTT4=
EXTT5=
EXTT6=
EXTT7=
EXTT8=
PLAYORDER=
